<svg xmlns="http://www.w3.org/2000/svg" xmlns:xlink="http://www.w3.org/1999/xlink" xml:space="preserve" version="1.1" style="shape-rendering:geometricPrecision;text-rendering:geometricPrecision;image-rendering:optimizeQuality;" viewBox="0 0 798 736.25" x="0px" y="0px" fill-rule="evenodd" clip-rule="evenodd">
	<defs>
		<style type="text/css">
			.fil0 {fill:#18541d}
		</style>
	</defs>
	<g>
		<path class="fil0" d="M547 62c25,0 49,9 69,31l38 124c-166,32 -344,32 -510,0l38 -124c21,-22 44,-31 69,-31 92,-11 204,-11 296,0zm-231 344l166 0c10,0 18,8 18,19l0 26c0,10 -8,18 -18,18l-166 0c-10,0 -18,-8 -18,-18l0 -26c0,-11 8,-19 18,-19zm275 96l0 54c0,18 15,33 33,33l98 0c19,0 34,-15 34,-33 0,-82 0,-164 0,-247 -4,-10 -8,-21 -12,-32 88,8 64,-79 -37,-71l-45 -128c-13,-35 -44,-56 -90,-66 -107,-16 -239,-16 -346,0 -46,10 -77,31 -90,66l-45 128c-100,-8 -125,79 -37,71 -4,11 -8,22 -12,32 0,83 0,165 1,247 0,18 15,33 33,33l98 0c18,0 33,-15 33,-33l0 -54 384 0zm-487 -130c0,-17 1,-36 1,-44 0,-24 39,-25 49,-20 1,0 72,32 108,48 5,12 6,23 -1,32 -67,14 -130,18 -157,-16zm590 0c0,-17 -1,-36 -1,-44 0,-24 -39,-25 -49,-20 -1,0 -72,32 -108,48 -5,12 -6,23 1,32 67,14 130,18 157,-16z" />
	</g>
</svg>
