<svg fill="#18541d" xmlns="http://www.w3.org/2000/svg" data-name="Layer 1" viewBox="0 0 100 125" x="0px" y="0px">
	<title>
		Home
	</title>
	<path d="M99.94,40.61c0-.53,0-1.07,0-1.6a5.26,5.26,0,0,0-2.19-4.49l-14-11a5.87,5.87,0,0,0,.18-1.45V16.29a6.06,6.06,0,0,0-11.8-1.87L57.23,2.72c-4.62-3.6-9.87-3.64-14.45,0Q22.44,18.57,2.16,34.53a4.37,4.37,0,0,0-2,2.92,26.8,26.8,0,0,0,0,6.05C0.56,46.07,3,47.55,5.64,47.3a4.94,4.94,0,0,0,4.41-5,2.38,2.38,0,0,1,1.07-2.05Q28.71,26.47,46.27,12.66c2.6-2,4.79-2,7.4,0q17.49,13.73,35,27.45a2.71,2.71,0,0,1,1.22,2.28,5,5,0,0,0,9.92,1.09,17.37,17.37,0,0,0,.2-2.88H99.94Z" />
	<path d="M84.81,44.45q-15.52-12.48-31-25c-2.78-2.25-4.86-2.25-7.66,0q-15.45,12.49-30.91,25a6,6,0,0,0-2.44,5.09v2.21c0,0.05,0,.1,0,0.15V96h0a4,4,0,0,0,4,4H36.49V80.75a9,9,0,0,1,9-9h9a9,9,0,0,1,9,9V100H83.18a4,4,0,0,0,4-4V71.85q0-11.24,0-22.49A5.91,5.91,0,0,0,84.81,44.45Z" />
</svg>
