<svg xmlns="http://www.w3.org/2000/svg" width="5.291" height="5.088" viewBox="0 0 5.291 5.088"><g transform="translate(-34.925 -0.529)"><path d="M36.463.529l.73.365a1.664,1.664,0,0,1,.92,1.486V4.76a.8.8,0,0,0,.781-.791V2.91h.42l-.079.079a.264.264,0,1,0,.373.373l.515-.516a.264.264,0,0,0,0-.4l0,0-.517-.517a.265.265,0,0,0-.373.375l.076.076h-.418V1.322a.8.8,0,0,0-.8-.793Zm-.978.205a.6.6,0,0,0-.56.588V3.906A1.223,1.223,0,0,0,35.6,5l1.116.557a.6.6,0,0,0,.855-.529V2.381a1.121,1.121,0,0,0-.619-1L35.781.793a.565.565,0,0,0-.3-.058Z" fill="#18541d"/></g></svg>