<svg xmlns="http://www.w3.org/2000/svg" viewBox="0 0 605.282 134.623">
	<g transform="translate(-2811.344 -7665.096)">
		<g transform="translate(2938.505 7665.096)">
			<path d="M115.636-69.776q13.624,0,23.966,5.326A38.048,38.048,0,0,1,155.58-49.278a45.2,45.2,0,0,1,5.635,22.851q0,13-5.635,22.727A38.274,38.274,0,0,1,139.6,11.349q-10.342,5.326-23.966,5.326H85.415V-69.776Zm-.619,71.712q13.624,0,21.055-7.431T143.5-26.427q0-13.5-7.431-21.117t-21.055-7.617H102.755v57.1Zm76.339.991h28.487V16.675H174.016V-69.776h17.34Zm58.4-72.7V16.675h-17.34V-69.776ZM338.83,16.675H321.49L282.228-42.652V16.675h-17.34V-69.9h17.34L321.49-10.449V-69.9h17.34Z" transform="translate(65.885 69.9)" fill="#18541d" />
			<path d="M7772.65,6715.1h57.49v13.687h-57.49Z" transform="translate(-7353.522 -6715.097)" fill="#d50000" />
			<path d="M7772.65,6731.04v50.192h58.991V6766.24H7790v-21.284h34.747V6731.04Z" transform="translate(-7353.522 -6694.655)" fill="#18541d" />
			<path d="M7772.65,6715.1h57.49v13.687h-57.49Z" transform="translate(-7694.756 -6715.097)" fill="#d50000" />
			<path d="M7772.65,6731.04v50.192h58.991V6766.24H7790v-21.284h34.747V6731.04Z" transform="translate(-7694.756 -6694.655)" fill="#18541d" />
			<g transform="translate(0 0.005)">
				<path d="M15.282,17.859H2.051V0H37.784C68.055.714,74.975,39.736,51.491,53.264L64.982,86.57H42.338L29.48,57.237l-7.858.089v29.2L2.051,86.57V37.146H15.773L19.39,41.12l2.947-2.59a5.871,5.871,0,0,0,4.2,1.518l.045,3.929,5.313.045L31.8,40.093a7.19,7.19,0,0,0,4.241-1.652l2.277,2.59,4.2-4.286L40.061,34.6a6.363,6.363,0,0,0,1.473-4.465l4.108.491.4-5.759L41.4,24.243a5.229,5.229,0,0,0-1.25-3.929l2.813-2.768-4.152-3.8-2.545,2.5a6.017,6.017,0,0,0-3.929-2.188L32.292,10.4H26.8v4.152a7.02,7.02,0,0,0-4.688,1.875L19.434,13.8l-4.063,4.063Z" transform="translate(-2.051)" fill="#18541d" fill-rule="evenodd" />
				<path d="M7.233,0a7.061,7.061,0,0,1,7.233,6.876,7.061,7.061,0,0,1-7.233,6.876A7.061,7.061,0,0,1,0,6.876,7.061,7.061,0,0,1,7.233,0Z" transform="translate(19.616 20.448)" fill="#d50000" />
			</g>
		</g>
		<g transform="translate(2811.344 7665.101)">
			<path d="M-11678-7012.68h-.379c-.184,0-.369-.006-.549-.006l-9.477-.076h-1.184a5.051,5.051,0,0,1-3.177-.984,18.569,18.569,0,0,1-5.653-4.6,12.224,12.224,0,0,1-2.549-6l.076-22.713c0-3.209,0-3.209,1-3.788a11.362,11.362,0,0,0,2.229-1.627c3.286-2.974,6.246-7.862,9.38-13.039l.011-.017.045-.074c3-4.958,6.109-10.084,9.828-14.107a25.719,25.719,0,0,1,6.093-5.009,16.464,16.464,0,0,1,7.286-2.2l37.608-.073h.074l.149,4.361-37.682-.074c-9.48,3.445-12.814,9.831-16.038,16.007-.919,1.763-1.958,3.757-3.141,5.58l.6,1.427,42.8.076.9.978-.3,45.053-.452.675-30.085.226h-1.043c-.486,0-.743-.021-.8-.138-.069-.148.158-.438.612-1.017l.02-.025.064-.083.022-.028c.155-.2.331-.42.521-.671a21.156,21.156,0,0,1,5.718-5.265,6.348,6.348,0,0,1,3.9-1.246c.228,0,.478.006.741.014h.382c.338.007.721.016,1.145.016h16.621l-.076-4.511h-16.545c-3.144,0-3.711.088-6.543,1.58a29.022,29.022,0,0,0-10.758,10.078c-.153.22-.276.408-.377.563l-.045.068-.006.009C-11677.4-7012.76-11677.5-7012.68-11678-7012.68Zm-12.527-35.25c-3.031,0-5.394,1.167-6.481,3.2a6.5,6.5,0,0,0,.363,6.184,14.055,14.055,0,0,0,5.854,5.606,14.546,14.546,0,0,0,6.781,1.807c3.029,0,5.389-1.167,6.475-3.2,1.941-3.637-.847-8.927-6.214-11.793a14.519,14.519,0,0,0-6.85-1.8Zm4.435-6.871a1.574,1.574,0,0,0-1.67.984c-.167.624.189,1.6,1.69,2.466l12.26,7.221h30.913l-.076-3.838-30.385-.3-10.458-5.867a4.9,4.9,0,0,0-2.281-.665Z" transform="translate(11712.356 7087.006)" fill="#d50000" />
			<ellipse cx="8.65" cy="4.964" rx="8.65" ry="4.964" transform="translate(0 18.578)" fill="#d50000" />
			<path d="M2.527,10.44,9.146,14.5l9.627.226,1.73.075v1.73l.075,5.19L18.246,23.9,4.783,23.75,2,21.2,1.85,10.29Z" transform="translate(12.064 62.667)" fill="#d50000" fill-rule="evenodd" />
			<g transform="translate(43.122 44.551) rotate(-45)">
				<path d="M1.778,18.728a6.086,6.086,0,0,1,0-8.6l8.336-8.336A6.131,6.131,0,0,1,14.962.021a5.99,5.99,0,0,1,4.4,2.479c.212.3,1.658,1.839,1.859,2.142L4.452,21.4Z" transform="translate(34.415)" fill="#d50000" />
				<path d="M1.794,10.114,10.13,1.778a6.086,6.086,0,0,1,8.6,0L21.4,4.452,4.639,21.216c-.3-.2-1.845-1.648-2.141-1.86A5.99,5.99,0,0,1,.021,14.962a6.131,6.131,0,0,1,1.773-4.848Z" transform="translate(0 34.415)" fill="#d50000" />
				<path d="M18.833,33.78a6.04,6.04,0,0,0,4.3-1.78L32,23.132a6.089,6.089,0,0,0,1.189-6.92L49.4,0a30.611,30.611,0,0,1-5.938,34.73L34.73,43.463a30.473,30.473,0,0,1-19.193,8.811q-1.189.092-2.375.092A30.631,30.631,0,0,1,0,49.4L16.212,33.189a6.056,6.056,0,0,0,2.621.591Z" transform="translate(7.059 7.059)" fill="#d50000" />
			</g>
		</g>
		<path d="M41.7-112.489H37.331L19.767-139.122v26.633H15.4v-33.5h4.367L37.331-119.4v-26.585H41.7Zm43.429-14.156a25.7,25.7,0,0,1-.144,2.639H63.964a8.5,8.5,0,0,0,2.663,6.07,8.471,8.471,0,0,0,5.879,2.183,8.076,8.076,0,0,0,4.727-1.32A6.986,6.986,0,0,0,79.9-120.6h4.7a11.3,11.3,0,0,1-4.223,6.166,12.746,12.746,0,0,1-7.87,2.375,13.293,13.293,0,0,1-6.694-1.68,11.889,11.889,0,0,1-4.631-4.775,14.808,14.808,0,0,1-1.68-7.174,15.019,15.019,0,0,1,1.632-7.15,11.454,11.454,0,0,1,4.583-4.727,13.642,13.642,0,0,1,6.79-1.656,13.2,13.2,0,0,1,6.622,1.632,11.3,11.3,0,0,1,4.439,4.487,13.242,13.242,0,0,1,1.56,6.454Zm-4.511-.912a8.055,8.055,0,0,0-1.1-4.3,7.178,7.178,0,0,0-3-2.735,9.355,9.355,0,0,0-4.2-.936,8.094,8.094,0,0,0-5.639,2.111,8.6,8.6,0,0,0-2.663,5.855Zm27.593-7.63v15.5a3.687,3.687,0,0,0,.816,2.711,4.021,4.021,0,0,0,2.831.792h3.215v3.7h-3.935a7.831,7.831,0,0,1-5.471-1.68q-1.824-1.68-1.824-5.519v-15.5h-3.407v-3.6h3.407V-145.4h4.367v6.622h6.862v3.6Zm59.169-3.6-8.206,26.3h-4.511l-6.334-20.875L142-112.487h-4.511l-8.254-26.3h4.463l6.046,22.074,6.526-22.074h4.463l6.382,22.122,5.95-22.122Zm27.785,26.729a13.463,13.463,0,0,1-6.694-1.68,11.957,11.957,0,0,1-4.7-4.775,14.639,14.639,0,0,1-1.7-7.174,14.218,14.218,0,0,1,1.752-7.126,12.069,12.069,0,0,1,4.775-4.751,13.852,13.852,0,0,1,6.766-1.656,13.852,13.852,0,0,1,6.766,1.656,12.112,12.112,0,0,1,4.775,4.727,14.183,14.183,0,0,1,1.752,7.15,14.013,14.013,0,0,1-1.8,7.174,12.473,12.473,0,0,1-4.871,4.775,13.966,13.966,0,0,1-6.814,1.68Zm0-3.839a9.221,9.221,0,0,0,4.415-1.1,8.4,8.4,0,0,0,3.335-3.311,10.6,10.6,0,0,0,1.272-5.375,10.77,10.77,0,0,0-1.248-5.375,8.17,8.17,0,0,0-3.263-3.287,9.1,9.1,0,0,0-4.367-1.08,9.063,9.063,0,0,0-4.391,1.08,7.916,7.916,0,0,0-3.191,3.287,11.121,11.121,0,0,0-1.2,5.375,11.42,11.42,0,0,0,1.176,5.423,7.815,7.815,0,0,0,3.143,3.287,8.83,8.83,0,0,0,4.317,1.073Zm35.607-18.619a8.377,8.377,0,0,1,3.287-3.5,10.16,10.16,0,0,1,5.207-1.248v4.511h-1.152q-7.342,0-7.342,7.966v14.3H226.4v-26.3h4.367Zm40.214,22.026L260.667-124.1v11.613H256.3V-148h4.367v20.875l10.125-11.661h6.094l-12.381,13.1,12.429,13.2Z" transform="translate(3139.692 7911.77)" fill="#18541d" />
	</g>
</svg>
