<svg xmlns="http://www.w3.org/2000/svg" width="127.163" height="86.555" viewBox="0 0 127.163 86.555"><g transform="translate(0 -0.012)"><path d="M-11678-7012.68h-.379c-.184,0-.369-.006-.549-.006l-9.477-.076h-1.184a5.053,5.053,0,0,1-3.177-.984,18.565,18.565,0,0,1-5.653-4.6,12.227,12.227,0,0,1-2.549-6l.076-22.713c0-3.209,0-3.209,1-3.788a11.425,11.425,0,0,0,2.228-1.627c3.287-2.974,6.247-7.861,9.381-13.039l.011-.017.045-.074c3-4.958,6.109-10.084,9.828-14.107a25.712,25.712,0,0,1,6.093-5.009,16.469,16.469,0,0,1,7.286-2.2l37.608-.073h.074l.149,4.361-37.682-.074c-9.48,3.445-12.814,9.831-16.038,16.007-.919,1.763-1.958,3.757-3.141,5.58l.6,1.427,42.8.076.9.978-.3,45.053-.452.675-30.085.226h-1.043c-.486,0-.743-.021-.8-.138-.069-.148.158-.438.612-1.017l.02-.025.064-.083.022-.028c.155-.2.331-.42.521-.671a21.181,21.181,0,0,1,5.719-5.264,6.345,6.345,0,0,1,3.9-1.247c.229,0,.479.005.742.014h.382c.338.007.721.016,1.145.016h16.621l-.076-4.511h-16.545c-3.144,0-3.711.088-6.543,1.58a29.032,29.032,0,0,0-10.757,10.079c-.154.22-.277.408-.378.563l-.045.068-.006.009C-11677.4-7012.76-11677.5-7012.68-11678-7012.68Zm-12.527-35.25c-3.031,0-5.394,1.167-6.481,3.2a6.5,6.5,0,0,0,.362,6.184,14.056,14.056,0,0,0,5.854,5.606,14.544,14.544,0,0,0,6.782,1.807c3.028,0,5.388-1.167,6.474-3.2,1.941-3.637-.847-8.927-6.214-11.793a14.519,14.519,0,0,0-6.85-1.8Zm4.435-6.871a1.574,1.574,0,0,0-1.67.984c-.167.624.189,1.6,1.69,2.465l12.26,7.221h30.913l-.076-3.838-30.385-.3-10.458-5.867a4.9,4.9,0,0,0-2.281-.665Z" transform="translate(11712.356 7087.006)" fill="#d50000"/><ellipse cx="8.65" cy="4.964" rx="8.65" ry="4.964" transform="translate(0 18.578)" fill="#d50000"/><path d="M2.527,10.44,9.146,14.5l9.627.226,1.73.075v1.73l.075,5.19L18.246,23.9,4.783,23.75,2,21.2,1.85,10.29Z" transform="translate(12.064 62.667)" fill="#d50000" fill-rule="evenodd"/><g transform="translate(43.122 44.551) rotate(-45)"><path d="M1.778,18.728a6.086,6.086,0,0,1,0-8.6l8.336-8.336A6.131,6.131,0,0,1,14.962.021a5.99,5.99,0,0,1,4.4,2.479c.212.3,1.658,1.839,1.859,2.142L4.452,21.4Z" transform="translate(34.415)" fill="#18541d"/><path d="M1.794,10.114,10.13,1.778a6.086,6.086,0,0,1,8.6,0L21.4,4.452,4.639,21.216c-.3-.2-1.845-1.648-2.141-1.86A5.99,5.99,0,0,1,.021,14.962a6.131,6.131,0,0,1,1.773-4.848Z" transform="translate(0 34.415)" fill="#18541d"/><path d="M18.833,33.78a6.04,6.04,0,0,0,4.3-1.78L32,23.132a6.089,6.089,0,0,0,1.189-6.92L49.4,0a30.611,30.611,0,0,1-5.938,34.73L34.73,43.463a30.473,30.473,0,0,1-19.193,8.811q-1.189.092-2.375.092A30.631,30.631,0,0,1,0,49.4L16.212,33.189a6.056,6.056,0,0,0,2.621.591Z" transform="translate(7.059 7.059)" fill="#18541d"/></g></g></svg>